<svg width="12.359" height="12.141" viewBox="0 0 12.359 12.141" xmlns="http://www.w3.org/2000/svg"><g id="svgGroup" stroke-linecap="round" fill-rule="evenodd" font-size="9pt" stroke="#000" stroke-width="0.25mm" fill="#ffc800" style="stroke:#000;stroke-width:0.25mm;fill:#ffc800"><path d="M 1.422 2.547 L 0.219 2.438 A 20.711 20.711 0 0 1 0.102 1.211 A 32.525 32.525 0 0 0 0 0 L 2.563 0.063 L 5.125 0.125 Q 5.672 0.141 6.516 0.227 A 30.855 30.855 0 0 1 8.242 0.453 A 18.83 18.83 0 0 1 9.514 0.699 A 16.385 16.385 0 0 1 9.914 0.797 Q 10.431 0.93 10.804 1.083 A 3.431 3.431 0 0 1 11.156 1.25 A 1.453 1.453 0 0 1 11.622 1.657 A 1.812 1.812 0 0 1 11.727 1.813 A 3.751 3.751 0 0 1 12.071 2.564 A 4.185 4.185 0 0 1 12.094 2.633 Q 12.234 3.078 12.297 3.531 A 7.69 7.69 0 0 1 12.335 3.856 Q 12.359 4.113 12.359 4.328 A 4.045 4.045 0 0 1 12.347 4.648 A 3.397 3.397 0 0 1 12.328 4.828 Q 12.297 5.063 12.219 5.313 Q 12.125 5.578 11.859 5.82 Q 11.594 6.063 11.266 6.273 A 4.653 4.653 0 0 1 10.594 6.633 Q 10.36 6.734 10.177 6.802 A 4.806 4.806 0 0 1 10.016 6.859 A 2.962 2.962 0 0 0 10.057 6.867 Q 10.124 6.88 10.248 6.901 A 36.465 36.465 0 0 0 10.328 6.914 A 6.58 6.58 0 0 1 10.661 6.979 A 7.756 7.756 0 0 1 10.82 7.016 A 3.925 3.925 0 0 1 11.127 7.103 A 3.273 3.273 0 0 1 11.297 7.164 A 1.355 1.355 0 0 1 11.396 7.208 Q 11.492 7.254 11.544 7.303 A 0.242 0.242 0 0 1 11.578 7.344 A 1.448 1.448 0 0 1 11.666 7.524 Q 11.705 7.619 11.737 7.729 A 2.547 2.547 0 0 1 11.758 7.805 Q 11.828 8.078 11.859 8.383 Q 11.891 8.688 11.906 8.977 A 12.319 12.319 0 0 1 11.916 9.183 Q 11.92 9.296 11.921 9.396 A 6.72 6.72 0 0 1 11.922 9.484 L 11.922 9.648 A 0.853 0.853 0 0 1 11.912 9.783 A 0.766 0.766 0 0 1 11.906 9.812 Q 11.875 9.969 11.688 10.227 A 5.021 5.021 0 0 1 11.429 10.552 A 6.147 6.147 0 0 1 11.25 10.75 A 11.364 11.364 0 0 1 10.881 11.125 A 9.843 9.843 0 0 1 10.758 11.242 Q 10.516 11.469 10.391 11.563 A 3.915 3.915 0 0 1 10.179 11.707 A 3.281 3.281 0 0 1 10.055 11.781 A 3.101 3.101 0 0 1 9.755 11.931 A 3.465 3.465 0 0 1 9.703 11.953 A 0.537 0.537 0 0 1 9.62 11.981 Q 9.454 12.023 9.102 12.047 A 40.488 40.488 0 0 1 8.627 12.076 A 47.807 47.807 0 0 1 8.125 12.102 A 38.002 38.002 0 0 1 7.625 12.121 A 31.27 31.27 0 0 1 7.156 12.133 A 121.688 121.688 0 0 1 6.972 12.136 Q 6.74 12.14 6.614 12.14 A 10.053 10.053 0 0 1 6.547 12.141 A 77.068 77.068 0 0 1 4.078 12.102 A 137.912 137.912 0 0 1 1.609 12 Q 1.641 10.891 1.656 9.789 Q 1.672 8.688 1.672 7.563 Q 1.672 6.297 1.594 5.047 Q 1.516 3.797 1.422 2.547 Z M 8.196 4.017 A 9.758 9.758 0 0 0 8.188 3.867 A 4.103 4.103 0 0 0 8.125 3.375 Q 8.078 3.125 8 2.906 Q 7.922 2.688 7.813 2.547 A 0.095 0.095 0 0 0 7.787 2.522 Q 7.745 2.493 7.651 2.471 A 1.024 1.024 0 0 0 7.641 2.469 Q 7.5 2.438 7.336 2.422 Q 7.172 2.406 7.016 2.406 L 6.813 2.406 A 13.857 13.857 0 0 0 5.266 2.492 A 30.876 30.876 0 0 0 3.734 2.703 Q 3.828 3.469 3.906 4.234 A 38.367 38.367 0 0 0 4.094 5.766 Q 4.281 5.766 4.828 5.734 A 56.984 56.984 0 0 0 5.393 5.699 A 68.429 68.429 0 0 0 5.992 5.656 A 23.125 23.125 0 0 0 6.588 5.604 A 18.631 18.631 0 0 0 7.141 5.539 Q 7.672 5.469 7.828 5.375 A 0.7 0.7 0 0 0 8.142 4.91 A 0.92 0.92 0 0 0 8.148 4.875 A 4.173 4.173 0 0 0 8.192 4.53 A 3.242 3.242 0 0 0 8.203 4.266 Q 8.203 4.161 8.196 4.017 Z M 3.953 7.875 L 4.203 9.859 A 1.523 1.523 0 0 0 4.24 9.859 Q 4.335 9.856 4.57 9.844 A 72.922 72.922 0 0 0 4.8 9.831 Q 4.902 9.825 5.012 9.819 A 126.502 126.502 0 0 0 5.242 9.805 A 65.298 65.298 0 0 0 5.637 9.779 A 77.732 77.732 0 0 0 6.055 9.75 Q 6.484 9.719 6.859 9.672 Q 7.234 9.625 7.5 9.57 A 1.801 1.801 0 0 0 7.606 9.545 Q 7.761 9.504 7.816 9.45 A 0.133 0.133 0 0 0 7.828 9.438 A 1.114 1.114 0 0 0 7.959 9.239 A 0.92 0.92 0 0 0 8.023 9.078 A 1.37 1.37 0 0 0 8.073 8.806 A 1.64 1.64 0 0 0 8.078 8.672 A 1.884 1.884 0 0 0 8.027 8.241 A 2.11 2.11 0 0 0 8.016 8.195 A 0.749 0.749 0 0 0 7.766 7.797 A 0.14 0.14 0 0 0 7.733 7.774 Q 7.68 7.745 7.571 7.723 A 1.501 1.501 0 0 0 7.547 7.719 A 2.58 2.58 0 0 0 7.237 7.682 A 2.883 2.883 0 0 0 7.188 7.68 A 98.433 98.433 0 0 1 6.915 7.668 A 86.29 86.29 0 0 1 6.828 7.664 A 16.499 16.499 0 0 0 6.754 7.661 Q 6.668 7.657 6.62 7.657 A 1.542 1.542 0 0 0 6.594 7.656 A 12.458 12.458 0 0 0 5.266 7.727 A 112.374 112.374 0 0 0 3.953 7.875 Z" vector-effect="non-scaling-stroke"/></g></svg>