<svg width="551.66" height="78.613" viewBox="0 0 551.66 78.613" xmlns="http://www.w3.org/2000/svg"><g id="svgGroup" stroke-linecap="round" fill-rule="evenodd" font-size="9pt" stroke="#000" stroke-width="0.25mm" fill="black" style="stroke:#000;stroke-width:0.25mm;fill:black"><path d="M 90.137 4.688 L 110.254 4.199 A 128.871 128.871 0 0 0 109.153 13.562 A 149.81 149.81 0 0 0 108.887 17.432 A 248.14 248.14 0 0 0 108.521 27.603 A 219.428 219.428 0 0 0 108.496 30.859 Q 108.496 31.934 108.594 34.619 A 89.066 89.066 0 0 0 108.792 38.11 A 107.139 107.139 0 0 0 108.984 40.332 A 83.931 83.931 0 0 0 109.36 43.583 A 65.405 65.405 0 0 0 109.717 45.898 A 19.325 19.325 0 0 0 109.936 46.992 Q 110.316 48.621 110.84 49.219 A 0.854 0.854 0 0 0 111.036 49.358 Q 111.377 49.543 112.121 49.707 A 12.089 12.089 0 0 0 112.354 49.756 Q 113.574 50 115.283 50.195 A 53.698 53.698 0 0 0 117.515 50.401 A 65.028 65.028 0 0 0 118.945 50.488 Q 120.898 50.586 122.656 50.635 A 490.753 490.753 0 0 1 124.12 50.677 Q 124.789 50.698 125.389 50.719 A 284.942 284.942 0 0 1 125.781 50.732 A 143.08 143.08 0 0 0 126.416 50.754 Q 127.295 50.781 127.734 50.781 L 129.395 50.781 A 59.876 59.876 0 0 0 131.787 50.732 A 48.795 48.795 0 0 0 133.256 50.652 A 40.443 40.443 0 0 0 134.082 50.586 A 7.143 7.143 0 0 0 134.576 50.525 Q 135.043 50.449 135.327 50.321 A 1.155 1.155 0 0 0 135.547 50.195 A 2.473 2.473 0 0 0 136.207 49.511 Q 136.897 48.492 137.305 46.387 A 54.851 54.851 0 0 0 137.871 42.796 A 69.89 69.89 0 0 0 138.184 39.746 A 88.769 88.769 0 0 0 138.458 34.491 A 77.791 77.791 0 0 0 138.477 32.812 L 138.477 28.027 A 206.684 206.684 0 0 1 138.525 23.535 A 206.684 206.684 0 0 0 138.574 19.043 Q 138.574 14.453 138.477 10.01 Q 138.379 5.566 138.184 0.977 A 57.538 57.538 0 0 0 142.236 1.221 A 166.223 166.223 0 0 0 146.289 1.27 A 118.527 118.527 0 0 0 151.123 1.172 A 28.978 28.978 0 0 0 155.859 0.586 A 239.754 239.754 0 0 1 159.033 21.729 A 205.086 205.086 0 0 1 160.156 43.164 A 247.415 247.415 0 0 1 159.912 54.199 Q 159.668 59.668 158.887 65.234 A 60.901 60.901 0 0 1 155.762 67.432 A 111.628 111.628 0 0 0 153.363 69.052 A 126.437 126.437 0 0 0 152.539 69.629 Q 151.172 70.508 149.561 71.631 Q 147.949 72.754 146.191 73.828 A 34.288 34.288 0 0 1 142.627 75.732 A 17.471 17.471 0 0 1 140.987 76.393 Q 140.144 76.681 139.362 76.835 A 10.581 10.581 0 0 1 139.258 76.855 A 8.839 8.839 0 0 1 138.198 77.064 Q 136.996 77.23 135.352 77.197 A 317.691 317.691 0 0 0 134.18 77.176 Q 132.495 77.148 131.25 77.148 Q 127.148 77.344 123.047 77.441 A 352.962 352.962 0 0 1 114.648 77.539 A 188.904 188.904 0 0 0 112.827 77.548 Q 111.895 77.557 110.859 77.575 A 326.975 326.975 0 0 0 110.156 77.588 A 23.802 23.802 0 0 1 109.699 77.592 Q 108.494 77.592 107.403 77.467 A 15.622 15.622 0 0 1 105.566 77.148 Q 105.023 77.058 103.808 76.338 A 21.571 21.571 0 0 1 103.613 76.221 A 39.774 39.774 0 0 1 102.352 75.42 Q 101.712 74.997 101.011 74.506 A 70.311 70.311 0 0 1 100.537 74.17 Q 98.828 72.949 96.973 71.533 A 889.679 889.679 0 0 1 94.272 69.464 A 790.225 790.225 0 0 1 93.408 68.799 Q 92.233 67.892 91.289 67.125 A 66.499 66.499 0 0 1 90.479 66.455 A 268.766 268.766 0 0 0 89.922 65.989 Q 89.321 65.487 88.965 65.197 A 30.03 30.03 0 0 0 88.77 65.039 A 222.225 222.225 0 0 1 88.037 54.736 Q 87.793 49.609 87.793 44.434 Q 87.793 34.375 88.525 24.512 Q 89.258 14.648 90.137 4.688 Z M 551.66 7.617 L 551.074 20.313 Q 548.047 20.117 545.02 20.02 Q 541.992 19.922 538.965 19.922 Q 537.695 19.922 535.352 19.971 A 345.044 345.044 0 0 0 532.874 20.032 A 470.141 470.141 0 0 0 530.127 20.117 A 193.778 193.778 0 0 0 524.219 20.41 A 517.536 517.536 0 0 0 521.313 20.605 A 398.203 398.203 0 0 0 518.652 20.801 A 69.148 69.148 0 0 0 516.858 20.961 Q 516.156 21.033 515.53 21.115 A 34.233 34.233 0 0 0 514.355 21.289 A 22.634 22.634 0 0 0 513.744 21.399 Q 512.806 21.582 512.402 21.765 A 1.05 1.05 0 0 0 512.207 21.875 A 4.496 4.496 0 0 0 511.319 23.103 A 3.875 3.875 0 0 0 510.938 24.805 A 3.229 3.229 0 0 0 511.027 25.584 A 2.349 2.349 0 0 0 511.523 26.563 A 0.384 0.384 0 0 0 511.675 26.677 Q 512.115 26.895 513.672 27.051 A 71.877 71.877 0 0 0 515.26 27.19 Q 515.974 27.246 516.773 27.296 A 147.183 147.183 0 0 0 518.457 27.393 A 147.248 147.248 0 0 0 521.423 27.515 A 190.646 190.646 0 0 0 524.658 27.588 A 4840.897 4840.897 0 0 1 529.547 27.661 A 4218.317 4218.317 0 0 1 531.104 27.686 Q 533.747 27.728 535.886 27.806 A 158.722 158.722 0 0 1 536.572 27.832 A 157.507 157.507 0 0 1 537.68 27.881 Q 539.048 27.946 539.778 28.012 A 16.125 16.125 0 0 1 539.941 28.027 Q 542.845 28.409 544.822 29.509 A 8.784 8.784 0 0 1 545.85 30.176 Q 548.047 31.836 549.219 34.326 A 16.47 16.47 0 0 1 550.419 37.959 A 20.364 20.364 0 0 1 550.732 39.941 A 58.343 58.343 0 0 1 551.074 46.289 A 24.527 24.527 0 0 1 551.04 47.543 Q 551.004 48.24 550.931 49.025 A 47.915 47.915 0 0 1 550.83 50 A 39.502 39.502 0 0 1 550.098 54.297 A 17.818 17.818 0 0 1 548.852 57.95 A 16.5 16.5 0 0 1 548.682 58.301 A 11.094 11.094 0 0 1 547.804 59.775 Q 547.198 60.626 546.484 61.23 A 6.599 6.599 0 0 1 545.392 61.925 Q 543.997 62.646 541.748 63.184 A 63.601 63.601 0 0 1 537.468 64.046 A 76.108 76.108 0 0 1 534.717 64.453 Q 530.957 64.941 527.441 65.137 Q 524.544 65.298 522.774 65.326 A 44.19 44.19 0 0 1 522.07 65.332 A 114.078 114.078 0 0 1 509.18 64.6 Q 502.734 63.867 496.387 62.988 L 496.387 44.336 A 72.281 72.281 0 0 0 508.74 45.801 A 268.273 268.273 0 0 1 521.191 46.484 Q 522.455 46.582 525.026 46.63 A 154.998 154.998 0 0 0 525.049 46.631 A 68.753 68.753 0 0 0 526.346 46.643 A 70.796 70.796 0 0 0 530.273 46.533 Q 532.91 46.387 535.059 45.898 A 10.238 10.238 0 0 0 535.919 45.666 Q 537.314 45.218 537.695 44.531 A 1.165 1.165 0 0 0 537.884 43.985 A 1.465 1.465 0 0 0 537.891 43.848 L 537.891 43.164 A 10.986 10.986 0 0 0 537.873 42.575 Q 537.84 41.963 537.744 41.162 A 6.098 6.098 0 0 0 537.605 40.394 Q 537.508 40.012 537.365 39.702 A 2.744 2.744 0 0 0 537.109 39.258 A 0.21 0.21 0 0 0 537.043 39.217 Q 536.886 39.151 536.441 39.113 A 7.612 7.612 0 0 0 536.426 39.111 A 66.617 66.617 0 0 0 536.223 39.095 Q 535.822 39.063 535.742 39.063 Q 530.273 38.77 524.805 38.721 Q 519.336 38.672 513.77 38.184 A 237.071 237.071 0 0 1 509.229 37.744 A 42.55 42.55 0 0 1 504.688 37.012 Q 502.832 36.621 501.318 36.133 A 11.006 11.006 0 0 1 499.759 35.501 A 8.775 8.775 0 0 1 498.682 34.863 A 6.976 6.976 0 0 1 496.83 32.942 A 7.955 7.955 0 0 1 496.777 32.861 Q 495.996 31.641 495.703 29.59 A 5.102 5.102 0 0 1 495.533 28.734 A 4.321 4.321 0 0 1 495.508 28.271 L 495.508 26.855 Q 495.508 25.345 495.652 23.474 A 63.664 63.664 0 0 1 495.703 22.852 A 30.746 30.746 0 0 1 496.436 18.359 A 28.525 28.525 0 0 1 497.6 14.616 A 26.056 26.056 0 0 1 497.803 14.111 A 10.342 10.342 0 0 1 498.802 12.242 A 8.222 8.222 0 0 1 500 10.84 Q 500.77 10.07 502.588 9.525 A 15.486 15.486 0 0 1 503.125 9.375 A 41.217 41.217 0 0 1 505.381 8.858 Q 506.574 8.617 507.915 8.409 A 69.712 69.712 0 0 1 508.301 8.35 A 96.958 96.958 0 0 1 512.115 7.858 A 115.623 115.623 0 0 1 514.551 7.617 A 163.572 163.572 0 0 1 519.394 7.26 A 145.165 145.165 0 0 1 520.947 7.178 A 234.84 234.84 0 0 1 523.877 7.056 A 170.927 170.927 0 0 1 526.514 6.982 A 411.953 411.953 0 0 1 527.682 6.961 Q 529.321 6.934 530.273 6.934 A 294.266 294.266 0 0 1 541.064 7.129 A 563.673 563.673 0 0 1 551.66 7.617 Z M 418.457 49.902 L 419.238 65.43 Q 412.793 65.723 406.396 65.918 A 420.744 420.744 0 0 1 393.555 66.113 Q 392.433 66.113 389.766 66.08 A 1235.812 1235.812 0 0 1 388.525 66.064 A 160.716 160.716 0 0 1 383.757 65.927 A 194.156 194.156 0 0 1 380.713 65.771 A 172.224 172.224 0 0 1 375.735 65.409 A 140.599 140.599 0 0 1 372.949 65.137 A 37.447 37.447 0 0 1 371.39 64.938 Q 369.231 64.612 368.303 64.138 A 2.798 2.798 0 0 1 368.164 64.063 A 14.05 14.05 0 0 1 364.826 61.41 A 12.625 12.625 0 0 1 363.428 59.57 A 23.378 23.378 0 0 1 360.791 53.613 A 37.437 37.437 0 0 1 359.521 47.021 A 95.39 95.39 0 0 1 359.127 41.708 A 84.597 84.597 0 0 1 359.082 40.527 Q 358.984 40.039 359.033 39.502 Q 359.082 38.965 359.082 38.477 Q 359.082 33.301 360.205 28.857 A 24.104 24.104 0 0 1 362.784 22.63 A 29.532 29.532 0 0 1 364.355 20.215 A 13.346 13.346 0 0 1 367.256 17.247 Q 368.556 16.26 370.191 15.441 A 22.609 22.609 0 0 1 370.41 15.332 A 41.221 41.221 0 0 1 377.368 12.706 A 46.796 46.796 0 0 1 379.102 12.256 Q 383.789 11.133 388.477 10.693 Q 392.065 10.357 394.91 10.278 A 60.413 60.413 0 0 1 396.582 10.254 Q 398.663 10.254 401.391 10.508 A 91.422 91.422 0 0 1 404.004 10.791 A 54.862 54.862 0 0 1 412.744 12.598 A 38.738 38.738 0 0 1 418.09 14.579 A 32.818 32.818 0 0 1 420.605 15.869 Q 424.121 17.871 425.391 20.801 Q 425.538 21.243 425.713 22.156 A 35.613 35.613 0 0 1 425.83 22.803 A 272.387 272.387 0 0 1 426.07 24.216 Q 426.212 25.066 426.367 26.025 A 86.298 86.298 0 0 1 426.714 28.379 A 103.332 103.332 0 0 1 426.904 29.883 Q 427.148 31.934 427.344 33.789 A 779.35 779.35 0 0 1 427.516 35.443 Q 427.596 36.22 427.666 36.913 A 459.602 459.602 0 0 1 427.686 37.109 A 88.22 88.22 0 0 0 427.756 37.787 Q 427.846 38.622 427.914 39.062 A 8.678 8.678 0 0 0 427.93 39.16 Q 415.137 39.844 402.441 40.283 A 7189 7189 0 0 0 376.953 41.211 Q 376.855 41.602 376.855 41.992 L 376.855 42.773 A 11.691 11.691 0 0 0 377.003 44.696 Q 377.328 46.643 378.369 47.852 Q 379.883 49.609 382.129 50.342 A 16.67 16.67 0 0 0 385.127 51.009 A 20.917 20.917 0 0 0 387.109 51.172 A 160.314 160.314 0 0 0 389.746 51.245 A 127.128 127.128 0 0 0 392.188 51.27 A 195.22 195.22 0 0 0 405.273 50.83 Q 411.816 50.391 418.457 49.902 Z M 8.887 15.918 L 1.367 15.234 Q 0.879 11.328 0.635 7.568 A 203.28 203.28 0 0 0 0 0 L 16.016 0.391 L 32.031 0.781 Q 34.328 0.847 37.462 1.111 A 188.047 188.047 0 0 1 40.723 1.416 A 192.842 192.842 0 0 1 51.514 2.832 A 117.686 117.686 0 0 1 59.46 4.37 A 102.4 102.4 0 0 1 61.963 4.98 A 53.359 53.359 0 0 1 64.84 5.803 Q 66.307 6.269 67.527 6.771 A 21.444 21.444 0 0 1 69.727 7.813 A 9.079 9.079 0 0 1 72.636 10.359 A 11.326 11.326 0 0 1 73.291 11.328 A 23.446 23.446 0 0 1 75.445 16.023 A 26.167 26.167 0 0 1 75.586 16.455 A 34.085 34.085 0 0 1 76.855 22.07 A 48.061 48.061 0 0 1 77.094 24.098 Q 77.198 25.205 77.231 26.185 A 25.912 25.912 0 0 1 77.246 27.051 A 25.279 25.279 0 0 1 77.17 29.05 A 21.23 21.23 0 0 1 77.051 30.176 A 17.471 17.471 0 0 1 76.619 32.332 A 20.431 20.431 0 0 1 76.367 33.203 Q 75.781 34.863 74.121 36.377 A 27.176 27.176 0 0 1 71.165 38.708 A 30.86 30.86 0 0 1 70.41 39.209 A 29.083 29.083 0 0 1 66.211 41.455 A 68.287 68.287 0 0 1 64.755 42.065 Q 64.146 42.312 63.606 42.513 A 30.04 30.04 0 0 1 62.598 42.871 A 18.508 18.508 0 0 0 62.858 42.921 Q 63.278 42.998 64.047 43.128 A 227.306 227.306 0 0 0 64.551 43.213 A 41.125 41.125 0 0 1 66.634 43.618 A 48.476 48.476 0 0 1 67.627 43.848 A 24.529 24.529 0 0 1 69.546 44.393 A 20.453 20.453 0 0 1 70.605 44.775 A 8.469 8.469 0 0 1 71.228 45.047 Q 71.826 45.34 72.147 45.646 A 1.511 1.511 0 0 1 72.363 45.898 A 9.053 9.053 0 0 1 72.915 47.027 Q 73.158 47.62 73.358 48.309 A 15.919 15.919 0 0 1 73.486 48.779 A 24 24 0 0 1 74.039 51.685 A 27.208 27.208 0 0 1 74.121 52.393 A 77.469 77.469 0 0 1 74.408 55.991 A 71.29 71.29 0 0 1 74.414 56.104 A 76.99 76.99 0 0 1 74.474 57.397 Q 74.5 58.102 74.508 58.727 A 41.995 41.995 0 0 1 74.512 59.277 L 74.512 60.303 A 5.331 5.331 0 0 1 74.447 61.143 A 4.788 4.788 0 0 1 74.414 61.328 A 3.352 3.352 0 0 1 74.227 61.928 Q 73.975 62.547 73.442 63.349 A 16.356 16.356 0 0 1 73.047 63.916 Q 71.875 65.527 70.313 67.188 A 71.028 71.028 0 0 1 68.008 69.529 A 61.524 61.524 0 0 1 67.236 70.264 A 65.983 65.983 0 0 1 66.525 70.92 Q 65.577 71.781 65.001 72.221 A 9.029 9.029 0 0 1 64.941 72.266 A 24.47 24.47 0 0 1 63.618 73.166 A 20.508 20.508 0 0 1 62.842 73.633 Q 61.816 74.219 60.645 74.707 A 3.359 3.359 0 0 1 60.123 74.879 Q 59.09 75.143 56.885 75.293 Q 54.004 75.488 50.781 75.635 A 237.524 237.524 0 0 1 47.656 75.757 A 195.444 195.444 0 0 1 44.727 75.83 Q 42.413 75.87 41.338 75.877 A 62.848 62.848 0 0 1 40.918 75.879 Q 33.105 75.879 25.488 75.635 A 861.956 861.956 0 0 1 10.059 75 Q 10.254 68.066 10.352 61.182 A 981.244 981.244 0 0 0 10.449 47.266 A 251.996 251.996 0 0 0 9.961 31.543 Q 9.473 23.73 8.887 15.918 Z M 211.621 27.344 L 200.781 26.953 Q 200.684 30.371 200.635 33.691 A 458.319 458.319 0 0 0 200.586 40.43 A 652.794 652.794 0 0 0 200.635 48.486 A 703.317 703.317 0 0 0 200.781 56.543 L 210.742 56.738 A 83.733 83.733 0 0 0 210.547 62.5 L 210.547 68.359 A 81.508 81.508 0 0 0 210.693 73.242 Q 210.84 75.684 211.328 78.027 L 176.27 78.613 A 447.797 447.797 0 0 0 176.172 69.189 Q 176.074 64.551 175.781 59.766 L 182.129 59.668 A 1046.368 1046.368 0 0 0 181.006 41.504 Q 180.371 32.52 179.688 23.438 L 170.41 22.266 A 712.547 712.547 0 0 1 170.068 14.111 A 712.547 712.547 0 0 0 169.727 5.957 A 1465.879 1465.879 0 0 0 190.869 5.029 Q 201.367 4.492 212.109 3.711 A 121.07 121.07 0 0 0 211.702 13.605 A 119.245 119.245 0 0 0 211.719 15.576 A 237.999 237.999 0 0 1 211.751 19.51 A 235.141 235.141 0 0 1 211.621 27.344 Z M 294.043 40.332 L 294.043 46.289 A 25.808 25.808 0 0 1 293.592 51.174 A 23.453 23.453 0 0 1 293.359 52.246 Q 292.923 54.168 292.408 55.66 A 22.297 22.297 0 0 1 292.285 56.006 A 14.049 14.049 0 0 1 291.191 58.345 A 12.585 12.585 0 0 1 290.82 58.936 A 12.406 12.406 0 0 1 288.983 61.093 A 13.935 13.935 0 0 1 288.672 61.377 A 16.1 16.1 0 0 1 287.305 62.453 Q 286.604 62.949 285.784 63.436 A 26.786 26.786 0 0 1 285.547 63.574 A 2.338 2.338 0 0 1 285.198 63.756 Q 284.597 64.02 283.307 64.37 A 46.45 46.45 0 0 1 282.422 64.6 Q 279.883 65.234 276.123 66.113 A 335.075 335.075 0 0 1 272.144 67.017 A 455.518 455.518 0 0 1 267.725 67.969 A 540.452 540.452 0 0 1 258.252 69.873 A 2556.358 2556.358 0 0 0 248.682 71.729 A 1775.409 1775.409 0 0 1 244.165 72.607 A 1303.705 1303.705 0 0 1 240.088 73.389 Q 237.436 73.892 235.338 74.303 A 476.289 476.289 0 0 0 233.545 74.658 Q 230.859 75.195 229.98 75.293 A 3750.471 3750.471 0 0 1 226.855 39.844 A 897.425 897.425 0 0 1 224.609 4.297 Q 232.813 4.59 240.918 4.932 Q 249.023 5.273 257.324 5.859 A 153.632 153.632 0 0 0 258.524 5.963 Q 260.51 6.128 263.623 6.348 A 173.602 173.602 0 0 1 270.041 6.924 A 196.696 196.696 0 0 1 272.266 7.178 Q 276.758 7.715 280.713 8.496 A 32.901 32.901 0 0 1 282.553 8.911 Q 284.509 9.416 285.74 10.049 A 7.061 7.061 0 0 1 286.426 10.449 A 14.307 14.307 0 0 1 288.921 12.834 A 18.875 18.875 0 0 1 290.43 14.941 A 24.737 24.737 0 0 1 292.06 18.01 A 19.474 19.474 0 0 1 292.969 20.508 A 8.618 8.618 0 0 1 293.173 21.334 Q 293.339 22.158 293.457 23.328 A 40.675 40.675 0 0 1 293.555 24.463 A 133.001 133.001 0 0 1 293.761 27.953 A 158.516 158.516 0 0 1 293.848 30.176 Q 293.945 33.203 293.994 36.035 A 526.658 526.658 0 0 1 294.016 37.366 Q 294.043 39.233 294.043 40.332 Z M 353.125 54.688 L 354.59 72.949 A 3084.852 3084.852 0 0 1 331.494 74.609 A 2508.862 2508.862 0 0 1 308.398 76.074 Q 307.91 57.422 307.617 39.014 A 1444.909 1444.909 0 0 0 306.543 1.855 Q 313.086 1.758 319.434 1.465 Q 325.781 1.172 332.227 0.684 A 705.996 705.996 0 0 0 330.225 15.186 Q 329.297 22.461 328.809 29.785 A 523.826 523.826 0 0 0 328.174 42.041 A 1487.737 1487.737 0 0 0 327.734 54.297 A 420.77 420.77 0 0 0 340.479 54.492 A 411.187 411.187 0 0 1 353.125 54.688 Z M 491.992 34.18 L 491.992 36.426 L 473.145 37.305 Q 473.416 36.13 473.436 34.621 A 18.323 18.323 0 0 0 473.438 34.375 Q 473.438 32.028 472.806 31.26 A 1.263 1.263 0 0 0 472.754 31.201 A 1.644 1.644 0 0 0 472.204 30.832 Q 471.381 30.471 469.743 30.469 A 14.856 14.856 0 0 0 469.727 30.469 A 22.122 22.122 0 0 0 466.235 30.762 Q 464.404 31.055 462.402 31.641 A 164.869 164.869 0 0 0 459.086 32.647 Q 457.074 33.282 455.371 33.887 Q 454.883 38.184 454.59 42.48 A 126.298 126.298 0 0 0 454.297 51.074 A 923.647 923.647 0 0 0 454.346 60.596 Q 454.395 65.332 454.492 70.117 L 437.695 71.191 A 20427.968 20427.968 0 0 0 436.719 58.74 A 772.449 772.449 0 0 1 435.84 46.289 A 465.829 465.829 0 0 0 434.57 29.736 Q 433.789 21.484 433.008 13.086 A 179.933 179.933 0 0 1 444.092 14.209 Q 449.609 14.941 455.176 16.016 L 454.688 24.219 A 71.732 71.732 0 0 1 457.906 21.783 A 56.019 56.019 0 0 1 460.303 20.166 Q 462.988 18.457 465.771 17.285 Q 468.555 16.113 471.68 15.576 A 36.26 36.26 0 0 1 475.302 15.149 A 47.761 47.761 0 0 1 478.613 15.039 A 26.406 26.406 0 0 1 482.532 15.341 A 30.516 30.516 0 0 1 483.887 15.576 A 8.914 8.914 0 0 1 488.574 18.066 A 5.714 5.714 0 0 1 489.262 19.017 Q 489.806 19.942 490.234 21.289 A 31.441 31.441 0 0 1 491.193 25.162 A 35.189 35.189 0 0 1 491.309 25.83 Q 491.699 28.223 491.846 30.518 A 103.777 103.777 0 0 1 491.91 31.607 Q 491.992 33.154 491.992 34.18 Z M 245.996 23.242 L 241.992 23.242 A 922.478 922.478 0 0 1 243.408 38.232 A 687.588 687.588 0 0 1 244.531 53.223 Q 246.387 53.125 249.854 52.686 Q 253.32 52.246 256.934 51.514 A 50.71 50.71 0 0 0 261.671 50.322 A 43.383 43.383 0 0 0 263.672 49.658 Q 265.654 48.946 266.929 48.057 A 6.79 6.79 0 0 0 268.164 46.973 A 5.946 5.946 0 0 0 268.962 45.89 A 4.508 4.508 0 0 0 269.482 44.482 A 14.434 14.434 0 0 0 269.686 42.831 A 18.185 18.185 0 0 0 269.727 41.602 A 53.564 53.564 0 0 0 269.707 40.202 A 64.881 64.881 0 0 0 269.678 39.307 A 48.795 48.795 0 0 0 269.598 37.838 A 40.443 40.443 0 0 0 269.531 37.012 A 43.566 43.566 0 0 0 269.175 34.69 A 50.696 50.696 0 0 0 268.994 33.74 Q 268.652 32.031 268.066 30.42 A 16.257 16.257 0 0 0 266.602 27.393 A 10.485 10.485 0 0 0 264.453 24.902 A 1.891 1.891 0 0 0 264.007 24.633 Q 263.245 24.286 261.635 24.045 A 25.721 25.721 0 0 0 261.133 23.975 A 63.595 63.595 0 0 0 258.012 23.652 A 81.1 81.1 0 0 0 255.371 23.486 A 224.281 224.281 0 0 0 252.344 23.364 A 183.343 183.343 0 0 0 249.512 23.291 Q 246.777 23.242 245.996 23.242 Z M 51.27 26.66 A 25.573 25.573 0 0 0 51.258 25.925 Q 51.247 25.544 51.225 25.105 A 60.998 60.998 0 0 0 51.172 24.17 Q 51.074 22.656 50.781 21.094 Q 50.488 19.531 50 18.164 Q 49.512 16.797 48.828 15.918 A 0.594 0.594 0 0 0 48.67 15.765 Q 48.406 15.581 47.817 15.444 A 6.402 6.402 0 0 0 47.754 15.43 A 14.48 14.48 0 0 0 46.598 15.224 A 17.72 17.72 0 0 0 45.85 15.137 A 21.118 21.118 0 0 0 43.85 15.039 L 43.848 15.039 L 42.578 15.039 Q 37.695 15.039 32.91 15.576 Q 28.125 16.113 23.34 16.895 Q 23.926 21.68 24.414 26.465 Q 24.902 31.25 25.586 36.035 A 24.712 24.712 0 0 0 26.206 36.026 Q 27.505 35.992 30.176 35.84 A 356.122 356.122 0 0 0 33.704 35.62 A 427.708 427.708 0 0 0 37.451 35.352 A 144.526 144.526 0 0 0 41.174 35.022 A 116.443 116.443 0 0 0 44.629 34.619 A 39.142 39.142 0 0 0 45.969 34.42 Q 47.87 34.101 48.697 33.714 A 2.522 2.522 0 0 0 48.926 33.594 A 4.373 4.373 0 0 0 50.886 30.69 A 5.748 5.748 0 0 0 50.928 30.469 A 26.083 26.083 0 0 0 51.199 28.313 A 20.263 20.263 0 0 0 51.27 26.66 Z M 382.031 33.105 L 414.648 32.031 A 24.46 24.46 0 0 0 414.124 29.291 Q 413.778 27.934 413.292 26.823 A 11.074 11.074 0 0 0 412.451 25.244 A 11.184 11.184 0 0 0 410.391 22.844 A 9.679 9.679 0 0 0 408.447 21.533 A 14.648 14.648 0 0 0 405.013 20.31 A 18.384 18.384 0 0 0 402.979 19.971 A 55.672 55.672 0 0 0 398.962 19.677 A 67.387 67.387 0 0 0 396.387 19.629 Q 395.215 19.629 393.457 19.678 A 31.995 31.995 0 0 0 389.941 19.971 A 21.148 21.148 0 0 0 387.264 20.515 A 18.802 18.802 0 0 0 386.621 20.703 Q 385.304 21.115 384.473 21.804 A 4.246 4.246 0 0 0 384.18 22.07 A 3.741 3.741 0 0 0 383.496 22.856 Q 383.256 23.219 383.063 23.667 A 6.2 6.2 0 0 0 383.057 23.682 Q 382.617 24.707 382.324 25.879 A 20.525 20.525 0 0 0 381.924 27.892 A 18.673 18.673 0 0 0 381.885 28.174 A 21.129 21.129 0 0 0 381.796 28.968 Q 381.761 29.347 381.747 29.676 A 9.743 9.743 0 0 0 381.738 30.078 Q 381.738 31.641 382.031 33.105 Z M 24.707 49.219 L 26.27 61.621 A 9.514 9.514 0 0 0 26.499 61.618 Q 27.074 61.603 28.456 61.529 A 239.801 239.801 0 0 0 28.564 61.523 A 455.986 455.986 0 0 0 30.002 61.443 Q 30.635 61.407 31.326 61.366 A 790.121 790.121 0 0 0 32.764 61.279 A 408.153 408.153 0 0 0 35.229 61.121 A 485.87 485.87 0 0 0 37.842 60.938 A 105.404 105.404 0 0 0 41.065 60.655 A 86.508 86.508 0 0 0 42.871 60.449 A 70.997 70.997 0 0 0 44.533 60.223 Q 45.348 60.101 46.059 59.972 A 35.37 35.37 0 0 0 46.875 59.814 A 11.257 11.257 0 0 0 47.541 59.658 Q 48.505 59.397 48.852 59.065 A 0.831 0.831 0 0 0 48.926 58.984 Q 49.805 57.91 50.146 56.738 A 8.563 8.563 0 0 0 50.455 55.035 A 10.249 10.249 0 0 0 50.488 54.199 A 11.774 11.774 0 0 0 50.167 51.504 A 13.182 13.182 0 0 0 50.098 51.221 A 4.68 4.68 0 0 0 48.535 48.73 A 0.876 0.876 0 0 0 48.332 48.586 Q 48.001 48.406 47.318 48.271 A 9.379 9.379 0 0 0 47.168 48.242 Q 46.094 48.047 44.922 47.998 A 615.222 615.222 0 0 1 43.219 47.925 A 539.456 539.456 0 0 1 42.676 47.9 Q 41.794 47.86 41.373 47.853 A 9.636 9.636 0 0 0 41.211 47.852 A 77.865 77.865 0 0 0 32.91 48.291 Q 28.809 48.73 24.707 49.219 Z" vector-effect="non-scaling-stroke"/></g></svg>